PathFileType	4	(X/Y/Z)	C:/Users/beibeiliu/ov580/test_trc\sequence.28_training_dense_right.trc
DataRate	CameraRate	NumFrames	NumMarkers	Units	OrigDataRate	OrigDataStartFrame	OrigNumFrames
120	120	12	19	mm	120	125	333
Frame#	Time	ThumbCMC			ThumbMCP			ThumbIP			ThumbTip			IndexMCP			IndexPIP			IndexTip			MiddleMCP			MiddlePIP			MiddleTip			RingMCP			RingPIP			RingTip			PinkyMCP			PinkyPIP			PinkyTip			BackHand1			BackHand2			BackHand3	
		X0	Y0	Z0	X1	Y1	Z1	X2	Y2	Z2	X3	Y3	Z3	X4	Y4	Z4	X5	Y5	Z5	X6	Y6	Z6	X7	Y7	Z7	X8	Y8	Z8	X9	Y9	Z9	X10	Y10	Z10	X11	Y11	Z11	X12	Y12	Z12	X13	Y13	Z13	X14	Y14	Z14	X15	Y15	Z15	X16	Y16	Z16	X17	Y17	Z17	X18	Y18	Z18	
124	1.03333	228.475	20.237	39.5068	211.718	28.2224	12.5572	197.908	19.6551	-8.05293	183.495	2.23066	-17.3501	242.259	-9.40476	-18.9539	226.085	-2.25054	-39.0566	205.117	16.1474	-34.6414	234.883	-28.208	-19.074	218.055	-26.686	-39.9897	194.429	-1.66974	-34.6284	216.299	-39.6957	-8.9325	201.754	-29.2774	-29.4979	189.783	-4.47992	-21.0291	198.06	-42.4233	1.10084	185.604	-27.2018	-13.0335	180.436	-5.91858	-8.62675	224.858	-31.1682	36.7243	226.848	-22.346	64.8534	243.761	-7.48989	44.9245	
125	1.04167	229.739	20.7341	40.5901	211.216	28.0838	9.8215	198.697	19.5807	-6.93215	183.416	1.54292	-19.7857	242.684	-9.881	-15.0988	229.026	-3.13498	-38.8581	204.435	16.0263	-33.2081	231.775	-31.2835	-15.3188	217.177	-21.5829	-42.6691	193.993	0.00693654	-31.4054	218.216	-37.528	-9.80921	198.992	-27.1274	-28.8815	190.697	-5.91201	-20.6953	201.023	-39.2091	4.61292	189.683	-31.0224	-13.0897	181.218	-7.77404	-10.1468	224.731	-35.5059	38.1267	224.151	-25.3413	63.3982	243.04	-9.1734	43.9641	
126	1.05	228.668	19.4519	39.3721	211.738	27.2528	11.9985	199.191	19.9127	-9.00419	184.707	3.73519	-17.814	243.695	-8.83564	-15.5545	224.363	-4.3958	-38.8198	202.429	11.9224	-32.9639	231.718	-32.5237	-17.6522	214.858	-24.2802	-40.6352	194.021	-3.13336	-30.7618	215.378	-40.8156	-10.273	201.199	-27.7497	-27.9825	186.506	-5.69402	-16.4761	199.268	-42.0589	5.04542	185.09	-31.3186	-12.0969	180.78	-6.65349	-9.5937	226.839	-32.9563	37.4396	223.849	-27.5339	64.823	244.636	-11.2972	43.7953	
127	1.05833	229.465	19.3591	38.9067	211.492	22.878	11.1695	198.6	19.3793	-6.69392	183.767	2.06935	-19.104	240.067	-13.1004	-16.016	226	-2.42644	-39.8038	203.197	15.2987	-31.7352	233.293	-30.25	-16.8492	212.677	-24.229	-39.8061	194.301	-0.416408	-28.3893	217.218	-37.8996	-9.99693	197.144	-25.553	-28.1174	186.191	-7.18828	-15.2589	197.825	-44.3719	0.548139	185.198	-28.177	-12.992	178.149	-6.33386	-8.08648	223.96	-35.0368	36.67	224.427	-23.5007	66.202	240.12	-11.6553	46.7852	
128	1.06667	230.024	21.7306	39.9297	211.474	25.7402	13.641	198.322	17.4043	-7.11628	181.211	-0.164844	-21.3897	241.831	-12.3288	-17.1719	226.017	-8.04509	-37.5933	204.464	11.3843	-31.7334	231.573	-30.7154	-14.1722	214.398	-23.006	-41.2394	194.895	0.246962	-27.1651	216.704	-38.7233	-11.9509	198.107	-24.9037	-28.0187	188.487	-4.0059	-12.2052	196.24	-44.8524	1.36729	187.782	-31.2261	-13.4837	183.072	-8.83375	-7.87753	223.408	-35.5479	35.5893	224.39	-28.9107	64.6893	240.172	-12.0283	47.0088	
129	1.075	228.138	17.6023	38.1789	211.336	23.7834	10.3335	198.126	18.8643	-9.88883	181.087	1.64308	-21.0395	239.154	-15.6663	-18.5246	226.559	-6.10565	-38.5022	204.193	11.7199	-30.3691	232.334	-32.2899	-18.2749	211.941	-25.1799	-39.9136	196.563	1.46134	-26.9205	215.661	-38.8348	-9.39468	199.194	-28.7379	-26.9522	187.085	-5.01724	-10.8836	200.087	-42.0351	5.12632	182.826	-28.591	-11.1554	178.646	-7.28489	-2.12569	224.029	-34.5472	37.7868	223.954	-24.5726	65.8679	242.538	-11.9097	45.7774	
130	1.08333	228.277	17.3845	40.6413	210.555	24.647	7.66395	197.916	14.2902	-10.2405	181.825	-1.89575	-18.1963	240.272	-14.7267	-15.8636	226.838	-5.36272	-37.7627	202.688	9.53118	-29.0906	228.045	-35.4469	-17.6622	211.078	-23.8304	-38.6364	195.637	-2.24711	-26.6426	213.268	-40.7114	-9.39248	197.431	-25.9977	-26.1718	187.625	-3.8293	-9.84561	199.515	-41.4513	2.02796	184.699	-31.6179	-10.9041	180.028	-5.15438	-2.14711	225.862	-34.277	37.6073	220.755	-29.0144	65.3787	240.159	-13.4699	44.9487	
131	1.09167	228.017	15.6058	38.1175	210.283	24.9531	12.4876	196.399	15.8495	-11.4576	182.012	-0.792228	-19.6703	242.614	-12.0115	-14.4066	226.351	-7.33429	-37.8932	206.267	13.2743	-28.2871	228.952	-32.9992	-13.1634	210.32	-22.728	-37.9727	193.143	-2.29617	-20.9543	213.225	-40.3842	-6.88816	197.817	-26.908	-25.9729	186.921	-5.81812	-8.10727	199.183	-43.7645	3.46505	185.196	-27.8552	-10.7249	179.11	-6.86738	-2.03874	224.484	-33.3015	39.7224	224.467	-30.3906	62.2796	241.142	-15.0849	43.4974	
132	1.1	228.219	21.1481	40.8268	209.869	26.0383	11.1359	197.169	15.496	-12.4139	183.167	-2.62024	-18.0896	238.868	-15.9378	-12.7852	223.513	-9.84894	-36.063	204.05	15.7291	-24.6237	232.078	-31.0522	-14.4515	209.807	-22.9487	-37.8229	194.086	-3.18462	-21.7041	213.362	-40.1758	-8.47256	199.315	-27.875	-25.8762	189.975	-4.49573	-9.22666	199.105	-44.2678	6.50542	186.178	-26.9866	-11.2323	183.635	-7.98387	-1.02728	224.315	-36.631	41.1076	220.859	-29.6894	66.4058	242.22	-13.0095	48.6143	
133	1.10833	228.606	21.3939	40.0466	209.236	20.4243	9.26542	197.627	13.4869	-7.44274	182.782	-2.78765	-18.1009	242.217	-13.491	-16.6824	224.175	-5.96182	-36.5565	201.704	11.3692	-22.9808	227.813	-33.954	-15.8531	214.441	-23.1768	-37.8265	194.215	-2.48234	-19.9272	212.795	-41.2259	-6.84641	196.109	-29.3183	-24.7406	185.45	-8.19336	-9.5238	196.677	-45.6338	3.61146	183.009	-27.9948	-10.9906	183.814	-8.74668	-3.1358	223.325	-34.7609	39.0819	225.756	-27.1885	62.3734	242.172	-11.5096	45.8655	
134	1.11667	227.691	17.512	40.8625	209.225	21.96	12.315	196.408	16.0771	-12.483	181.668	-3.52266	-21.7108	241.02	-15.9095	-14.3953	227.215	-5.48386	-37.3048	204.607	14.0922	-23.406	231.793	-31.555	-16.2624	211.696	-22.3283	-37.4445	195.322	0.0834517	-15.3016	215.862	-39.5434	-8.09714	199.324	-28.0938	-25.3181	190.645	-3.08643	-7.47824	200.181	-44.0423	6.57016	187.89	-27.0402	-11.7589	184.433	-6.96205	-3.62131	225.639	-33.5891	42.106	222.258	-25.2215	67.0652	240.407	-14.5246	48.9979	
135	1.125	228.797	18.5911	38.3265	209.093	25.0208	9.63083	196.311	15.8943	-12.5298	182.912	-3.0997	-19.8082	243.847	-12.3372	-13.6753	224.368	-8.05965	-35.6118	203.821	10.8271	-23.8742	229.877	-33.1203	-17.3051	211.949	-22.567	-37.043	196.048	-1.1095	-20.4913	215.517	-39.8888	-10.9156	198.349	-24.6426	-25.1184	188.825	-6.80771	-10.5361	200.079	-43.0243	5.13328	185.721	-27.8037	-11.8956	182.031	-6.22998	-2.61621	223.772	-35.0049	38.2469	224.265	-26.7304	67.2363	240.791	-13.8154	44.539	
